# xmcd
#
# Track frame offsets:
#	150
#	22800
#	39177
#	50107
#	65941
#	88068
#	109657
#	123243
#	146485
#	163276
#	177389
#	191850
#	209269
#	223001
#	238745
#	253952
#	264238
#
# Disc length: 3714 seconds
#
# Revision: 1
# Processed by: cddbd v1.5.2PL0 Copyright (c) Steve Scherf et al.
# Submitted via: audiograbber 1.83.01
#
DISCID=050e8011
DTITLE=Rock Bottom - Snake Dancin Through God's Barnyard [CD1]
DYEAR=1900
DGENRE=Blues
TTITLE0=1 Rock Bottom  Show Business
TTITLE1=2 Rock Bottom  Snake Dancin' Through God's Barnyard
TTITLE2=3 Rock Bottom  Rattlesnake
TTITLE3=4  Rock Bottom  Mr. Big
TTITLE4=5 Rock Bottom  Large Women (and their skinny little men)
TTITLE5=6 Rock Bottom  St. Pete Boogie
TTITLE6=7 Rock Bottom  Let's All Go to Leon's
TTITLE7=8 Rock Bottom  Frog Leg Man
TTITLE8=9 Rock Bottom  Dizconnected
TTITLE9=10 Rock Bottom  Gator Tail
TTITLE10=11 Rock Bottom  Person To Person
TTITLE11=12 Rock Bottom  Stompin' At The Aheim
TTITLE12=13 Rock Bottom  Lets Go Jookin'
TTITLE13=14 Rock Bottom  Speedy Done Lost His Mojo Bag (Swiss version)
TTITLE14=15 Rock Bottom  Web Top Checker
TTITLE15=16 Rock Bottom  Ellie May
TTITLE16=17 Rock Bottom  Hank Ballard Stole My Date
EXTD=
EXTT0=
EXTT1=
EXTT2=
EXTT3=
EXTT4=
EXTT5=
EXTT6=
EXTT7=
EXTT8=
EXTT9=
EXTT10=
EXTT11=
EXTT12=
EXTT13=
EXTT14=
EXTT15=
EXTT16=
PLAYORDER=
